<mxfile host="app.diagrams.net" agent="Mozilla/5.0 (X11; Linux x86_64) AppleWebKit/537.36 (KHTML, like Gecko) Chrome/139.0.0.0 Safari/537.36" version="27.1.1">
  <diagram name="Page-1" id="pc7IyndSCSYQQamvQ25E">
    <mxGraphModel dx="1188" dy="624" grid="1" gridSize="10" guides="1" tooltips="1" connect="1" arrows="1" fold="1" page="1" pageScale="1" pageWidth="1169" pageHeight="827" math="0" shadow="0">
      <root>
        <mxCell id="0" />
        <mxCell id="1" parent="0" />
        <mxCell id="ByP5D_G1rsHgrG0Wdw6j-28" value="" style="rounded=0;whiteSpace=wrap;html=1;fillColor=#ffe6cc;strokeColor=#d79b00;opacity=50;" parent="1" vertex="1">
          <mxGeometry x="40" y="120" width="1320" height="1320" as="geometry" />
        </mxCell>
        <mxCell id="6X1RMtc413aK-zR1KFE_-30" value="" style="rounded=0;whiteSpace=wrap;html=1;fillColor=#d5e8d4;strokeColor=#82b366;opacity=40;" parent="1" vertex="1">
          <mxGeometry x="80" y="520" width="1240" height="700" as="geometry" />
        </mxCell>
        <mxCell id="nFLrENYFJLQG_o7xyKyQ-1" value="" style="rounded=0;whiteSpace=wrap;html=1;fillColor=#dae8fc;strokeColor=#6c8ebf;fillStyle=auto;gradientColor=none;opacity=30;glass=0;" parent="1" vertex="1">
          <mxGeometry x="120" y="560" width="1160" height="200" as="geometry" />
        </mxCell>
        <mxCell id="6X1RMtc413aK-zR1KFE_-32" value="" style="rounded=0;whiteSpace=wrap;html=1;fillColor=#ffe6cc;strokeColor=#d79b00;opacity=30;" parent="1" vertex="1">
          <mxGeometry x="240" y="800" width="840" height="360" as="geometry" />
        </mxCell>
        <mxCell id="dgM-4BmzPYSXpo5_9bCQ-5" value="" style="rounded=0;whiteSpace=wrap;html=1;opacity=40;fillColor=#d5e8d4;strokeColor=#82b366;" parent="1" vertex="1">
          <mxGeometry x="880" y="1240" width="320" height="120" as="geometry" />
        </mxCell>
        <mxCell id="ByP5D_G1rsHgrG0Wdw6j-15" value="" style="rounded=0;whiteSpace=wrap;html=1;opacity=40;fillColor=#d5e8d4;strokeColor=#82b366;" parent="1" vertex="1">
          <mxGeometry x="200" y="160" width="960" height="320" as="geometry" />
        </mxCell>
        <mxCell id="Tl25KXTgNwVIgyIWhWGG-37" style="edgeStyle=orthogonalEdgeStyle;rounded=0;orthogonalLoop=1;jettySize=auto;html=1;exitX=0.999;exitY=0.339;exitDx=0;exitDy=0;entryX=0.5;entryY=1;entryDx=0;entryDy=0;exitPerimeter=0;" parent="1" source="oyaQrTRKLkGkAWCvTF3D-5" target="nFLrENYFJLQG_o7xyKyQ-12" edge="1">
          <mxGeometry relative="1" as="geometry">
            <Array as="points">
              <mxPoint x="820" y="961" />
            </Array>
          </mxGeometry>
        </mxCell>
        <mxCell id="oyaQrTRKLkGkAWCvTF3D-5" value="" style="rounded=0;whiteSpace=wrap;html=1;fillColor=#e1d5e7;strokeColor=#9673a6;opacity=30;" parent="1" vertex="1">
          <mxGeometry x="280" y="920" width="440" height="120" as="geometry" />
        </mxCell>
        <mxCell id="nFLrENYFJLQG_o7xyKyQ-4" value="&lt;u&gt;&lt;b&gt;Services&lt;/b&gt;&lt;/u&gt;" style="text;html=1;strokeColor=none;fillColor=none;align=left;verticalAlign=middle;whiteSpace=wrap;rounded=0;" parent="1" vertex="1">
          <mxGeometry x="120.63" y="560" width="120" height="30" as="geometry" />
        </mxCell>
        <mxCell id="Tl25KXTgNwVIgyIWhWGG-32" style="edgeStyle=orthogonalEdgeStyle;rounded=0;orthogonalLoop=1;jettySize=auto;html=1;exitX=1;exitY=0.5;exitDx=0;exitDy=0;entryX=0;entryY=0.5;entryDx=0;entryDy=0;" parent="1" source="nFLrENYFJLQG_o7xyKyQ-11" target="nFLrENYFJLQG_o7xyKyQ-13" edge="1">
          <mxGeometry relative="1" as="geometry" />
        </mxCell>
        <mxCell id="Tl25KXTgNwVIgyIWhWGG-33" style="edgeStyle=orthogonalEdgeStyle;rounded=0;orthogonalLoop=1;jettySize=auto;html=1;exitX=0.75;exitY=1;exitDx=0;exitDy=0;" parent="1" source="nFLrENYFJLQG_o7xyKyQ-11" target="nFLrENYFJLQG_o7xyKyQ-8" edge="1">
          <mxGeometry relative="1" as="geometry" />
        </mxCell>
        <mxCell id="Tl25KXTgNwVIgyIWhWGG-34" style="edgeStyle=orthogonalEdgeStyle;rounded=0;orthogonalLoop=1;jettySize=auto;html=1;exitX=0.5;exitY=1;exitDx=0;exitDy=0;entryX=0.5;entryY=0;entryDx=0;entryDy=0;" parent="1" source="nFLrENYFJLQG_o7xyKyQ-11" target="nFLrENYFJLQG_o7xyKyQ-7" edge="1">
          <mxGeometry relative="1" as="geometry" />
        </mxCell>
        <mxCell id="oyaQrTRKLkGkAWCvTF3D-35" style="edgeStyle=orthogonalEdgeStyle;rounded=0;orthogonalLoop=1;jettySize=auto;html=1;exitX=0;exitY=0.5;exitDx=0;exitDy=0;entryX=1;entryY=0.5;entryDx=0;entryDy=0;" parent="1" source="nFLrENYFJLQG_o7xyKyQ-12" target="oyaQrTRKLkGkAWCvTF3D-34" edge="1">
          <mxGeometry relative="1" as="geometry" />
        </mxCell>
        <mxCell id="nFLrENYFJLQG_o7xyKyQ-13" value="&lt;a href=&quot;https://github.com/ahmetoner/whisper-asr-webservice&quot;&gt;Whisper&lt;/a&gt;&lt;br&gt;&lt;i&gt;&lt;sub&gt;AI Subtitle Generator&lt;/sub&gt;&lt;/i&gt;" style="rounded=1;whiteSpace=wrap;html=1;fillColor=#cdcdcd;strokeColor=#666666;" parent="1" vertex="1">
          <mxGeometry x="440" y="840" width="120" height="40" as="geometry" />
        </mxCell>
        <mxCell id="6X1RMtc413aK-zR1KFE_-15" value="" style="endArrow=classic;html=1;rounded=0;exitX=1;exitY=0.5;exitDx=0;exitDy=0;entryX=0;entryY=0.5;entryDx=0;entryDy=0;" parent="1" source="nFLrENYFJLQG_o7xyKyQ-12" target="nFLrENYFJLQG_o7xyKyQ-14" edge="1">
          <mxGeometry width="50" height="50" relative="1" as="geometry">
            <mxPoint x="615" y="990" as="sourcePoint" />
            <mxPoint x="605" y="860" as="targetPoint" />
          </mxGeometry>
        </mxCell>
        <mxCell id="6X1RMtc413aK-zR1KFE_-31" value="Main PC" style="text;html=1;strokeColor=none;fillColor=none;align=left;verticalAlign=middle;whiteSpace=wrap;rounded=0;fontStyle=5" parent="1" vertex="1">
          <mxGeometry x="80" y="520" width="60" height="30" as="geometry" />
        </mxCell>
        <mxCell id="6X1RMtc413aK-zR1KFE_-33" value="Media Management" style="text;html=1;strokeColor=none;fillColor=none;align=left;verticalAlign=middle;whiteSpace=wrap;rounded=0;fontStyle=5" parent="1" vertex="1">
          <mxGeometry x="240" y="800" width="130" height="30" as="geometry" />
        </mxCell>
        <mxCell id="oyaQrTRKLkGkAWCvTF3D-2" value="" style="endArrow=classic;html=1;rounded=0;exitX=0.5;exitY=1;exitDx=0;exitDy=0;entryX=0.5;entryY=0;entryDx=0;entryDy=0;entryPerimeter=0;" parent="1" source="nFLrENYFJLQG_o7xyKyQ-14" target="yPYZG5OUBgQut-3pFmvg-13" edge="1">
          <mxGeometry width="50" height="50" relative="1" as="geometry">
            <mxPoint x="665" y="1210" as="sourcePoint" />
            <mxPoint x="802.5" y="920" as="targetPoint" />
          </mxGeometry>
        </mxCell>
        <mxCell id="oyaQrTRKLkGkAWCvTF3D-34" value="&lt;a href=&quot;https://github.com/aeonlucid/flaresolverr&quot;&gt;Flaresolverr&lt;/a&gt;&lt;br&gt;&lt;i&gt;&lt;sub&gt;Cloudflare Proxy&lt;/sub&gt;&lt;/i&gt;" style="rounded=1;whiteSpace=wrap;html=1;fillColor=#cdcdcd;strokeColor=#666666;" parent="1" vertex="1">
          <mxGeometry x="600" y="840" width="120" height="40" as="geometry" />
        </mxCell>
        <mxCell id="ByP5D_G1rsHgrG0Wdw6j-7" value="&lt;a href=&quot;https://github.com/home-assistant&quot;&gt;HomeAssistant&lt;/a&gt;&lt;br&gt;&lt;i&gt;&lt;sub&gt;Smart Home Manager&lt;/sub&gt;&lt;/i&gt;" style="rounded=1;whiteSpace=wrap;html=1;dashed=1;dashPattern=8 8;fillColor=#fff2cc;strokeColor=#d6b656;" parent="1" vertex="1">
          <mxGeometry x="1120" y="600" width="120" height="40" as="geometry" />
        </mxCell>
        <mxCell id="ByP5D_G1rsHgrG0Wdw6j-16" value="Raspberry Pi" style="text;html=1;strokeColor=none;fillColor=none;align=left;verticalAlign=middle;whiteSpace=wrap;rounded=0;fontStyle=5" parent="1" vertex="1">
          <mxGeometry x="200" y="160" width="90" height="30" as="geometry" />
        </mxCell>
        <mxCell id="m3TOI7ntmCoXaSSpGHYj-6" style="edgeStyle=orthogonalEdgeStyle;rounded=0;orthogonalLoop=1;jettySize=auto;html=1;exitX=0.5;exitY=1;exitDx=0;exitDy=0;entryX=0;entryY=0.5;entryDx=0;entryDy=0;" parent="1" source="ByP5D_G1rsHgrG0Wdw6j-18" target="E4U7jJgjo-yncmPXJe4U-10" edge="1">
          <mxGeometry relative="1" as="geometry" />
        </mxCell>
        <mxCell id="ByP5D_G1rsHgrG0Wdw6j-29" value="&lt;b&gt;&lt;u&gt;Home Network&lt;/u&gt;&lt;/b&gt;" style="text;html=1;strokeColor=none;fillColor=none;align=left;verticalAlign=middle;whiteSpace=wrap;rounded=0;" parent="1" vertex="1">
          <mxGeometry x="40" y="120" width="90" height="30" as="geometry" />
        </mxCell>
        <mxCell id="ByP5D_G1rsHgrG0Wdw6j-34" value="&lt;a href=&quot;https://github.com/imagegenius/docker-immich&quot;&gt;Immich&lt;/a&gt;&lt;br&gt;&lt;sub&gt;&lt;i&gt;Photo/Video Gallery&lt;/i&gt;&lt;/sub&gt;" style="rounded=1;whiteSpace=wrap;html=1;dashed=1;dashPattern=8 8;fillColor=#fff2cc;strokeColor=#d6b656;" parent="1" vertex="1">
          <mxGeometry x="800" y="600" width="120" height="40" as="geometry" />
        </mxCell>
        <mxCell id="Tl25KXTgNwVIgyIWhWGG-35" style="edgeStyle=orthogonalEdgeStyle;rounded=0;orthogonalLoop=1;jettySize=auto;html=1;exitX=0.5;exitY=0;exitDx=0;exitDy=0;" parent="1" source="ByP5D_G1rsHgrG0Wdw6j-36" target="nFLrENYFJLQG_o7xyKyQ-7" edge="1">
          <mxGeometry relative="1" as="geometry" />
        </mxCell>
        <mxCell id="Tl25KXTgNwVIgyIWhWGG-36" style="edgeStyle=orthogonalEdgeStyle;rounded=0;orthogonalLoop=1;jettySize=auto;html=1;exitX=0.75;exitY=0;exitDx=0;exitDy=0;entryX=0.5;entryY=1;entryDx=0;entryDy=0;" parent="1" source="ByP5D_G1rsHgrG0Wdw6j-36" target="nFLrENYFJLQG_o7xyKyQ-8" edge="1">
          <mxGeometry relative="1" as="geometry" />
        </mxCell>
        <mxCell id="ByP5D_G1rsHgrG0Wdw6j-36" value="&lt;a href=&quot;https://github.com/recyclarr/recyclarr&quot;&gt;Recyclarr&lt;/a&gt;&lt;br&gt;&lt;i&gt;&lt;sub&gt;Quality Profile Manager&lt;/sub&gt;&lt;/i&gt;" style="rounded=1;whiteSpace=wrap;html=1;fillColor=#cdcdcd;strokeColor=#666666;" parent="1" vertex="1">
          <mxGeometry x="320" y="1080" width="120" height="40" as="geometry" />
        </mxCell>
        <mxCell id="ByP5D_G1rsHgrG0Wdw6j-39" value="&lt;a href=&quot;https://github.com/Unpackerr/unpackerr&quot;&gt;Unpackerr&lt;/a&gt;&lt;br&gt;&lt;span style=&quot;font-size: 10px;&quot;&gt;&lt;i&gt;Archive Auto-Extracter&lt;/i&gt;&lt;/span&gt;" style="rounded=1;whiteSpace=wrap;html=1;fillColor=#cdcdcd;strokeColor=#666666;" parent="1" vertex="1">
          <mxGeometry x="930" y="1080" width="120" height="40" as="geometry" />
        </mxCell>
        <mxCell id="beeUFlDvooX-L1BY4JcO-8" value="Service&lt;br&gt;&lt;i&gt;&lt;sub&gt;Currently running&lt;/sub&gt;&lt;/i&gt;" style="rounded=1;whiteSpace=wrap;html=1;" parent="1" vertex="1">
          <mxGeometry x="410" y="40" width="120" height="40" as="geometry" />
        </mxCell>
        <mxCell id="beeUFlDvooX-L1BY4JcO-9" value="Deprecated Service&lt;br&gt;&lt;i&gt;&lt;sub&gt;Will be removed&lt;br&gt;&lt;/sub&gt;&lt;/i&gt;" style="rounded=1;whiteSpace=wrap;html=1;fillColor=#f8cecc;strokeColor=#b85450;" parent="1" vertex="1">
          <mxGeometry x="650" y="40" width="120" height="40" as="geometry" />
        </mxCell>
        <mxCell id="beeUFlDvooX-L1BY4JcO-10" value="Planned Service&lt;br&gt;&lt;i&gt;&lt;sub&gt;Not in testing&lt;/sub&gt;&lt;/i&gt;" style="rounded=1;whiteSpace=wrap;html=1;dashed=1;dashPattern=8 8;fillColor=#fff2cc;strokeColor=#d6b656;" parent="1" vertex="1">
          <mxGeometry x="890" y="40" width="120" height="40" as="geometry" />
        </mxCell>
        <mxCell id="beeUFlDvooX-L1BY4JcO-11" value="New Service&lt;br&gt;&lt;sub&gt;&lt;i&gt;Currently testing&lt;/i&gt;&lt;/sub&gt;" style="rounded=1;whiteSpace=wrap;html=1;dashed=1;dashPattern=8 8;fillColor=#dae8fc;strokeColor=#6c8ebf;" parent="1" vertex="1">
          <mxGeometry x="770" y="40" width="120" height="40" as="geometry" />
        </mxCell>
        <mxCell id="Tl25KXTgNwVIgyIWhWGG-8" value="&lt;a href=&quot;https://github.com/ZoneMinder&quot;&gt;Frigate&lt;/a&gt;&lt;br&gt;&lt;i&gt;&lt;sub&gt;Home Camera Streaming&lt;/sub&gt;&lt;/i&gt;" style="rounded=1;whiteSpace=wrap;html=1;dashed=1;dashPattern=8 8;fillColor=#fff2cc;strokeColor=#d6b656;" parent="1" vertex="1">
          <mxGeometry x="800" y="640" width="120" height="40" as="geometry" />
        </mxCell>
        <mxCell id="L6m80jQgylzgtWpYlu2N-5" style="edgeStyle=orthogonalEdgeStyle;rounded=0;orthogonalLoop=1;jettySize=auto;html=1;exitX=0.5;exitY=0;exitDx=0;exitDy=0;entryX=0.5;entryY=1;entryDx=0;entryDy=0;" parent="1" source="Tl25KXTgNwVIgyIWhWGG-10" target="oyaQrTRKLkGkAWCvTF3D-5" edge="1">
          <mxGeometry relative="1" as="geometry" />
        </mxCell>
        <mxCell id="Tl25KXTgNwVIgyIWhWGG-10" value="&lt;a href=&quot;https://github.com/kiranshila/Doplarr&quot;&gt;Doplarr&lt;/a&gt;&lt;br&gt;&lt;i&gt;&lt;sub&gt;Discord Request Bot&lt;br&gt;&lt;/sub&gt;&lt;/i&gt;" style="rounded=1;whiteSpace=wrap;html=1;fillColor=#f8cecc;strokeColor=#b85450;" parent="1" vertex="1">
          <mxGeometry x="440" y="1080" width="120" height="40" as="geometry" />
        </mxCell>
        <mxCell id="oyaQrTRKLkGkAWCvTF3D-7" value="Managers" style="text;html=1;strokeColor=none;fillColor=none;align=left;verticalAlign=middle;whiteSpace=wrap;rounded=0;fontStyle=5" parent="1" vertex="1">
          <mxGeometry x="280" y="917" width="60" height="30" as="geometry" />
        </mxCell>
        <mxCell id="Tl25KXTgNwVIgyIWhWGG-42" style="edgeStyle=orthogonalEdgeStyle;rounded=0;orthogonalLoop=1;jettySize=auto;html=1;exitX=0.5;exitY=0;exitDx=0;exitDy=0;entryX=0.773;entryY=1.002;entryDx=0;entryDy=0;entryPerimeter=0;" parent="1" source="beeUFlDvooX-L1BY4JcO-1" target="oyaQrTRKLkGkAWCvTF3D-5" edge="1">
          <mxGeometry relative="1" as="geometry" />
        </mxCell>
        <mxCell id="dgM-4BmzPYSXpo5_9bCQ-6" value="&lt;u&gt;&lt;b&gt;Mobile Apps&lt;/b&gt;&lt;/u&gt;" style="text;html=1;strokeColor=none;fillColor=none;align=left;verticalAlign=middle;whiteSpace=wrap;rounded=0;" parent="1" vertex="1">
          <mxGeometry x="880" y="1240" width="120" height="30" as="geometry" />
        </mxCell>
        <mxCell id="dgM-4BmzPYSXpo5_9bCQ-12" value="&lt;a href=&quot;https://github.com/danielbrendel/hortusfox-web&quot;&gt;HortusFox&lt;/a&gt;&lt;br&gt;&lt;i&gt;&lt;sub&gt;Plant Management&lt;/sub&gt;&lt;/i&gt;" style="rounded=1;whiteSpace=wrap;html=1;dashed=1;dashPattern=8 8;fillColor=#fff2cc;strokeColor=#d6b656;" parent="1" vertex="1">
          <mxGeometry x="960" y="640" width="120" height="40" as="geometry" />
        </mxCell>
        <mxCell id="dgM-4BmzPYSXpo5_9bCQ-13" value="&lt;a href=&quot;https://github.com/actualbudget/actual&quot;&gt;Actual Budget&lt;/a&gt;&lt;br&gt;&lt;i&gt;&lt;sub&gt;Home Budgeting&lt;/sub&gt;&lt;/i&gt;" style="rounded=1;whiteSpace=wrap;html=1;dashed=1;dashPattern=8 8;fillColor=#fff2cc;strokeColor=#d6b656;" parent="1" vertex="1">
          <mxGeometry x="960" y="600" width="120" height="40" as="geometry" />
        </mxCell>
        <mxCell id="E4U7jJgjo-yncmPXJe4U-20" value="Internal Service&lt;br&gt;&lt;i&gt;&lt;sub&gt;Not exposed to internet&lt;/sub&gt;&lt;/i&gt;" style="rounded=1;whiteSpace=wrap;html=1;fillColor=#cdcdcd;strokeColor=#666666;fontColor=#333333;" parent="1" vertex="1">
          <mxGeometry x="530" y="40" width="120" height="40" as="geometry" />
        </mxCell>
        <mxCell id="yPYZG5OUBgQut-3pFmvg-14" style="edgeStyle=orthogonalEdgeStyle;rounded=0;orthogonalLoop=1;jettySize=auto;html=1;exitX=0;exitY=0.5;exitDx=0;exitDy=0;exitPerimeter=0;entryX=1;entryY=0.5;entryDx=0;entryDy=0;" parent="1" source="yPYZG5OUBgQut-3pFmvg-13" target="oyaQrTRKLkGkAWCvTF3D-5" edge="1">
          <mxGeometry relative="1" as="geometry" />
        </mxCell>
        <mxCell id="vYuPC3ZNPn9KQm_DdLxk-15" style="edgeStyle=orthogonalEdgeStyle;rounded=0;orthogonalLoop=1;jettySize=auto;html=1;exitX=0.5;exitY=1;exitDx=0;exitDy=0;exitPerimeter=0;entryX=0.5;entryY=0;entryDx=0;entryDy=0;startArrow=classic;startFill=1;" parent="1" source="yPYZG5OUBgQut-3pFmvg-13" target="ByP5D_G1rsHgrG0Wdw6j-39" edge="1">
          <mxGeometry relative="1" as="geometry" />
        </mxCell>
        <mxCell id="yPYZG5OUBgQut-3pFmvg-13" value="&lt;div&gt;&lt;br&gt;&lt;/div&gt;&lt;div&gt;&lt;br&gt;&lt;/div&gt;Temporary&lt;div&gt;Storage&lt;/div&gt;" style="strokeWidth=2;html=1;shape=mxgraph.flowchart.database;whiteSpace=wrap;" parent="1" vertex="1">
          <mxGeometry x="950" y="920" width="80" height="120" as="geometry" />
        </mxCell>
        <mxCell id="NsMB9uYr-3L7iLRaVMri-1" value="" style="ellipse;whiteSpace=wrap;html=1;aspect=fixed;fillColor=#00ff00;strokeColor=#82b366;" parent="1" vertex="1">
          <mxGeometry x="1040" y="40" width="10" height="10" as="geometry" />
        </mxCell>
        <mxCell id="NsMB9uYr-3L7iLRaVMri-2" value="" style="ellipse;whiteSpace=wrap;html=1;aspect=fixed;fillColor=#fff2cc;strokeColor=#d6b656;" parent="1" vertex="1">
          <mxGeometry x="1040" y="50" width="10" height="10" as="geometry" />
        </mxCell>
        <mxCell id="NsMB9uYr-3L7iLRaVMri-3" value="" style="ellipse;whiteSpace=wrap;html=1;aspect=fixed;fillColor=#f8cecc;strokeColor=#b85450;" parent="1" vertex="1">
          <mxGeometry x="1040" y="70" width="10" height="10" as="geometry" />
        </mxCell>
        <mxCell id="NsMB9uYr-3L7iLRaVMri-4" value="" style="ellipse;whiteSpace=wrap;html=1;aspect=fixed;fillColor=#cdcdcd;strokeColor=#666666;fontColor=#333333;" parent="1" vertex="1">
          <mxGeometry x="1040" y="60" width="10" height="10" as="geometry" />
        </mxCell>
        <mxCell id="NsMB9uYr-3L7iLRaVMri-5" value="&lt;font color=&quot;#969696&quot;&gt;SSO enabled&lt;/font&gt;" style="text;html=1;align=left;verticalAlign=middle;whiteSpace=wrap;rounded=0;" parent="1" vertex="1">
          <mxGeometry x="1060" y="40" width="140" height="10" as="geometry" />
        </mxCell>
        <mxCell id="NsMB9uYr-3L7iLRaVMri-6" value="&lt;font color=&quot;#969696&quot;&gt;SSO not configured yet&lt;/font&gt;" style="text;html=1;align=left;verticalAlign=middle;whiteSpace=wrap;rounded=0;" parent="1" vertex="1">
          <mxGeometry x="1060" y="50" width="140" height="10" as="geometry" />
        </mxCell>
        <mxCell id="NsMB9uYr-3L7iLRaVMri-7" value="&lt;font color=&quot;#969696&quot;&gt;SSO unsupported&lt;/font&gt;" style="text;html=1;align=left;verticalAlign=middle;whiteSpace=wrap;rounded=0;" parent="1" vertex="1">
          <mxGeometry x="1060" y="60" width="140" height="10" as="geometry" />
        </mxCell>
        <mxCell id="NsMB9uYr-3L7iLRaVMri-8" value="&lt;font color=&quot;#969696&quot;&gt;SSO not planned&lt;/font&gt;" style="text;html=1;align=left;verticalAlign=middle;whiteSpace=wrap;rounded=0;" parent="1" vertex="1">
          <mxGeometry x="1060" y="70" width="140" height="10" as="geometry" />
        </mxCell>
        <mxCell id="NsMB9uYr-3L7iLRaVMri-9" value="&lt;i&gt;&lt;u&gt;&lt;font color=&quot;#969696&quot;&gt;Legend&lt;/font&gt;&lt;/u&gt;&lt;/i&gt;" style="text;html=1;align=center;verticalAlign=middle;whiteSpace=wrap;rounded=0;" parent="1" vertex="1">
          <mxGeometry x="320" y="55" width="60" height="10" as="geometry" />
        </mxCell>
        <mxCell id="n2UcIOqW1sy_Vd4esa-b-6" value="&lt;a href=&quot;https://github.com/caronc/apprise&quot;&gt;Apprise&lt;/a&gt;&lt;br&gt;&lt;sub&gt;&lt;i&gt;Notification Forwarder&lt;/i&gt;&lt;/sub&gt;" style="rounded=1;whiteSpace=wrap;html=1;dashed=1;dashPattern=8 8;fillColor=#fff2cc;strokeColor=#d6b656;" parent="1" vertex="1">
          <mxGeometry x="800" y="680" width="120" height="40" as="geometry" />
        </mxCell>
        <mxCell id="ROIVXRoGKlTalxw2WbaJ-3" style="edgeStyle=orthogonalEdgeStyle;rounded=0;orthogonalLoop=1;jettySize=auto;html=1;exitX=0.5;exitY=0;exitDx=0;exitDy=0;entryX=0;entryY=0.5;entryDx=0;entryDy=0;" parent="1" source="ROIVXRoGKlTalxw2WbaJ-1" target="Tl25KXTgNwVIgyIWhWGG-1" edge="1">
          <mxGeometry relative="1" as="geometry">
            <Array as="points" />
          </mxGeometry>
        </mxCell>
        <mxCell id="ROIVXRoGKlTalxw2WbaJ-6" style="edgeStyle=orthogonalEdgeStyle;rounded=0;orthogonalLoop=1;jettySize=auto;html=1;exitX=0;exitY=0.5;exitDx=0;exitDy=0;entryX=1;entryY=0.5;entryDx=0;entryDy=0;" parent="1" source="ROIVXRoGKlTalxw2WbaJ-5" target="0rjydeuM3OXjqDoLz8A_-4" edge="1">
          <mxGeometry relative="1" as="geometry" />
        </mxCell>
        <mxCell id="ROIVXRoGKlTalxw2WbaJ-13" style="edgeStyle=orthogonalEdgeStyle;rounded=0;orthogonalLoop=1;jettySize=auto;html=1;entryX=0.5;entryY=0;entryDx=0;entryDy=0;" parent="1" source="nFLrENYFJLQG_o7xyKyQ-11" target="oyaQrTRKLkGkAWCvTF3D-21" edge="1">
          <mxGeometry relative="1" as="geometry">
            <Array as="points">
              <mxPoint x="260" y="860" />
            </Array>
          </mxGeometry>
        </mxCell>
        <mxCell id="ROIVXRoGKlTalxw2WbaJ-15" style="edgeStyle=orthogonalEdgeStyle;rounded=0;orthogonalLoop=1;jettySize=auto;html=1;entryX=1;entryY=0.75;entryDx=0;entryDy=0;endArrow=classic;endFill=1;startArrow=classic;startFill=1;exitX=0.5;exitY=1;exitDx=0;exitDy=0;" parent="1" source="ROIVXRoGKlTalxw2WbaJ-14" target="oyaQrTRKLkGkAWCvTF3D-21" edge="1">
          <mxGeometry relative="1" as="geometry" />
        </mxCell>
        <mxCell id="ROIVXRoGKlTalxw2WbaJ-14" value="&lt;a href=&quot;https://github.com/Unmanic/unmanic&quot;&gt;Unmanic&lt;/a&gt;&lt;br&gt;&lt;i&gt;&lt;sub&gt;Media Transcoder&lt;/sub&gt;&lt;/i&gt;" style="rounded=1;whiteSpace=wrap;html=1;dashed=1;dashPattern=8 8;fillColor=#fff2cc;strokeColor=#d6b656;fillStyle=solid;" parent="1" vertex="1">
          <mxGeometry x="760" y="1080" width="120" height="40" as="geometry" />
        </mxCell>
        <mxCell id="ROIVXRoGKlTalxw2WbaJ-18" value="" style="group" parent="1" vertex="1" connectable="0">
          <mxGeometry x="240" y="240" width="120" height="40" as="geometry" />
        </mxCell>
        <mxCell id="ByP5D_G1rsHgrG0Wdw6j-18" value="&lt;a href=&quot;https://github.com/traefik/traefik&quot;&gt;Traefik&lt;/a&gt;&lt;br&gt;&lt;i&gt;&lt;sub&gt;Reverse Proxy&lt;/sub&gt;&lt;/i&gt;" style="rounded=1;whiteSpace=wrap;html=1;fillColor=#cdcdcd;strokeColor=#666666;" parent="ROIVXRoGKlTalxw2WbaJ-18" vertex="1">
          <mxGeometry width="120" height="40" as="geometry" />
        </mxCell>
        <mxCell id="m5CkstzO8_yG1yKLl-sh-1" value="" style="ellipse;whiteSpace=wrap;html=1;aspect=fixed;fillColor=#00ff00;strokeColor=#82b366;" parent="ROIVXRoGKlTalxw2WbaJ-18" vertex="1">
          <mxGeometry x="110" width="10" height="10" as="geometry" />
        </mxCell>
        <mxCell id="ROIVXRoGKlTalxw2WbaJ-19" value="" style="group" parent="1" vertex="1" connectable="0">
          <mxGeometry x="400" y="280" width="160" height="40" as="geometry" />
        </mxCell>
        <mxCell id="r-umOOk1T-VE_y2GGeU2-6" value="" style="group" parent="ROIVXRoGKlTalxw2WbaJ-19" vertex="1" connectable="0">
          <mxGeometry width="160" height="40" as="geometry" />
        </mxCell>
        <mxCell id="E4U7jJgjo-yncmPXJe4U-10" value="&lt;a href=&quot;https://github.com/authelia/authelia&quot;&gt;Authelia&lt;/a&gt;&lt;br&gt;&lt;i&gt;&lt;sub&gt;Identity and Access Platform&lt;/sub&gt;&lt;/i&gt;" style="rounded=1;whiteSpace=wrap;html=1;" parent="r-umOOk1T-VE_y2GGeU2-6" vertex="1">
          <mxGeometry width="160" height="40" as="geometry" />
        </mxCell>
        <mxCell id="i6Ztm92oaQVUvdZmO5BK-25" value="" style="ellipse;whiteSpace=wrap;html=1;aspect=fixed;fillColor=#00ff00;strokeColor=#82b366;" vertex="1" parent="r-umOOk1T-VE_y2GGeU2-6">
          <mxGeometry x="150" width="10" height="10" as="geometry" />
        </mxCell>
        <mxCell id="ROIVXRoGKlTalxw2WbaJ-21" value="" style="group;strokeColor=none;" parent="1" vertex="1" connectable="0">
          <mxGeometry x="400" y="200" width="120" height="40" as="geometry" />
        </mxCell>
        <mxCell id="r-umOOk1T-VE_y2GGeU2-5" value="" style="group" parent="ROIVXRoGKlTalxw2WbaJ-21" vertex="1" connectable="0">
          <mxGeometry width="120" height="40" as="geometry" />
        </mxCell>
        <mxCell id="MZvt10MQMLPbu3KIxgem-8" value="&lt;a href=&quot;https://github.com/homarr-labs/homarr&quot;&gt;Homarr&lt;/a&gt;&lt;br&gt;&lt;i&gt;&lt;sub&gt;Landing Page&lt;/sub&gt;&lt;/i&gt;" style="rounded=1;whiteSpace=wrap;html=1;" parent="r-umOOk1T-VE_y2GGeU2-5" vertex="1">
          <mxGeometry width="120" height="40" as="geometry" />
        </mxCell>
        <mxCell id="r-umOOk1T-VE_y2GGeU2-1" value="" style="ellipse;whiteSpace=wrap;html=1;aspect=fixed;fillColor=#00ff00;strokeColor=#82b366;" parent="r-umOOk1T-VE_y2GGeU2-5" vertex="1">
          <mxGeometry x="110" width="10" height="10" as="geometry" />
        </mxCell>
        <mxCell id="ROIVXRoGKlTalxw2WbaJ-22" value="" style="group" parent="1" vertex="1" connectable="0">
          <mxGeometry x="640" y="200" width="125" height="80" as="geometry" />
        </mxCell>
        <mxCell id="i6Ztm92oaQVUvdZmO5BK-19" value="" style="group" vertex="1" connectable="0" parent="ROIVXRoGKlTalxw2WbaJ-22">
          <mxGeometry x="-85" width="120" height="40" as="geometry" />
        </mxCell>
        <mxCell id="FYdWkUBb8k9048htAl1_-3" value="&lt;a href=&quot;https://github.com/jokob-sk/NetAlertX&quot;&gt;NetAlertX&lt;/a&gt;&lt;div&gt;&lt;i&gt;&lt;sub&gt;Network Device Scanner&lt;/sub&gt;&lt;/i&gt;&lt;br&gt;&lt;/div&gt;" style="rounded=1;whiteSpace=wrap;html=1;" parent="i6Ztm92oaQVUvdZmO5BK-19" vertex="1">
          <mxGeometry width="120" height="40" as="geometry" />
        </mxCell>
        <mxCell id="FYdWkUBb8k9048htAl1_-5" value="" style="ellipse;whiteSpace=wrap;html=1;aspect=fixed;fillColor=#00ff00;strokeColor=#82b366;" parent="i6Ztm92oaQVUvdZmO5BK-19" vertex="1">
          <mxGeometry x="110" width="10" height="10" as="geometry" />
        </mxCell>
        <mxCell id="ROIVXRoGKlTalxw2WbaJ-23" value="" style="group" parent="1" vertex="1" connectable="0">
          <mxGeometry x="160" y="600" width="120" height="40" as="geometry" />
        </mxCell>
        <mxCell id="0rjydeuM3OXjqDoLz8A_-4" value="&lt;a href=&quot;https://emby.media/&quot;&gt;Emby&lt;/a&gt;&lt;br&gt;&lt;i&gt;&lt;sub&gt;TV &amp;amp; Movies&lt;/sub&gt;&lt;/i&gt;" style="rounded=1;whiteSpace=wrap;html=1;" parent="ROIVXRoGKlTalxw2WbaJ-23" vertex="1">
          <mxGeometry width="120" height="40" as="geometry" />
        </mxCell>
        <mxCell id="gErYVcJsU2c04pcpEg-A-7" value="" style="ellipse;whiteSpace=wrap;html=1;aspect=fixed;fillColor=#cdcdcd;strokeColor=#666666;fontColor=#333333;" parent="ROIVXRoGKlTalxw2WbaJ-23" vertex="1">
          <mxGeometry x="110" width="10" height="10" as="geometry" />
        </mxCell>
        <mxCell id="ROIVXRoGKlTalxw2WbaJ-24" value="" style="group" parent="1" vertex="1" connectable="0">
          <mxGeometry x="160" y="640" width="120" height="40" as="geometry" />
        </mxCell>
        <mxCell id="0rjydeuM3OXjqDoLz8A_-2" value="&lt;a href=&quot;https://github.com/navidrome/navidrome&quot;&gt;Navidrome&lt;/a&gt;&lt;br&gt;&lt;sub&gt;&lt;i&gt;Music&lt;/i&gt;&lt;/sub&gt;" style="rounded=1;whiteSpace=wrap;html=1;" parent="ROIVXRoGKlTalxw2WbaJ-24" vertex="1">
          <mxGeometry width="120" height="40" as="geometry" />
        </mxCell>
        <mxCell id="8BR5hsAV9z4kNd5JWIXa-1" value="" style="ellipse;whiteSpace=wrap;html=1;aspect=fixed;fillColor=#00ff00;strokeColor=#82b366;" parent="ROIVXRoGKlTalxw2WbaJ-24" vertex="1">
          <mxGeometry x="110" width="10" height="10" as="geometry" />
        </mxCell>
        <mxCell id="ROIVXRoGKlTalxw2WbaJ-25" value="" style="group" parent="1" vertex="1" connectable="0">
          <mxGeometry x="160" y="680" width="120" height="40" as="geometry" />
        </mxCell>
        <mxCell id="oyaQrTRKLkGkAWCvTF3D-13" value="&lt;a href=&quot;https://github.com/TandoorRecipes/recipes&quot;&gt;Tandoor&lt;/a&gt;&lt;br&gt;&lt;i&gt;&lt;sub&gt;&amp;nbsp; &amp;nbsp; &amp;nbsp; &amp;nbsp; &amp;nbsp; Recipe Cookbook&lt;/sub&gt;&lt;/i&gt;" style="rounded=1;whiteSpace=wrap;html=1;" parent="ROIVXRoGKlTalxw2WbaJ-25" vertex="1">
          <mxGeometry width="120" height="40" as="geometry" />
        </mxCell>
        <mxCell id="ByP5D_G1rsHgrG0Wdw6j-17" value="&lt;a href=&quot;https://github.com/nginx/nginx&quot;&gt;nginx&lt;/a&gt;" style="rounded=1;whiteSpace=wrap;html=1;" parent="ROIVXRoGKlTalxw2WbaJ-25" vertex="1">
          <mxGeometry width="30" height="20" as="geometry" />
        </mxCell>
        <mxCell id="KxSA5gZsJCGf5EhIG4f--3" value="&lt;font style=&quot;font-size: 10px;&quot;&gt;&lt;a href=&quot;https://github.com/postgres/postgres&quot;&gt;PSQL&lt;/a&gt;&lt;/font&gt;" style="rounded=1;whiteSpace=wrap;html=1;" parent="ROIVXRoGKlTalxw2WbaJ-25" vertex="1">
          <mxGeometry y="20" width="30" height="20" as="geometry" />
        </mxCell>
        <mxCell id="CjAK9aj9z9eyRUDpmc_b-1" value="" style="ellipse;whiteSpace=wrap;html=1;aspect=fixed;fillColor=#00ff00;strokeColor=#82b366;" parent="ROIVXRoGKlTalxw2WbaJ-25" vertex="1">
          <mxGeometry x="110" width="10" height="10" as="geometry" />
        </mxCell>
        <mxCell id="ROIVXRoGKlTalxw2WbaJ-26" value="" style="group" parent="1" vertex="1" connectable="0">
          <mxGeometry x="320" y="680" width="120" height="40" as="geometry" />
        </mxCell>
        <mxCell id="0rjydeuM3OXjqDoLz8A_-5" value="&lt;a href=&quot;https://github.com/zurdi15/romm&quot;&gt;RomM&lt;/a&gt;&lt;br&gt;&lt;sub&gt;&lt;i&gt;Game Manager&lt;/i&gt;&lt;/sub&gt;" style="rounded=1;whiteSpace=wrap;html=1;" parent="ROIVXRoGKlTalxw2WbaJ-26" vertex="1">
          <mxGeometry width="120" height="40" as="geometry" />
        </mxCell>
        <mxCell id="Fif5-x-M6B1vJOmEHzV4-1" value="&lt;a href=&quot;https://github.com/MariaDB/mariadb-docker&quot;&gt;MDB&lt;/a&gt;" style="rounded=1;whiteSpace=wrap;html=1;" parent="ROIVXRoGKlTalxw2WbaJ-26" vertex="1">
          <mxGeometry width="30" height="20" as="geometry" />
        </mxCell>
        <mxCell id="Q0VvJ70L2bGEV7D_ZZ47-1" value="" style="ellipse;whiteSpace=wrap;html=1;aspect=fixed;fillColor=#00ff00;strokeColor=#82b366;" parent="ROIVXRoGKlTalxw2WbaJ-26" vertex="1">
          <mxGeometry x="110" width="10" height="10" as="geometry" />
        </mxCell>
        <mxCell id="ROIVXRoGKlTalxw2WbaJ-27" value="" style="group" parent="1" vertex="1" connectable="0">
          <mxGeometry x="320" y="640" width="120" height="40" as="geometry" />
        </mxCell>
        <mxCell id="0rjydeuM3OXjqDoLz8A_-3" value="&lt;a href=&quot;https://github.com/advplyr/audiobookshelf&quot;&gt;AudioBookShelf&lt;/a&gt;&lt;br&gt;&lt;sub&gt;&lt;i&gt;eBooks &amp;amp; Audiobooks&lt;/i&gt;&lt;/sub&gt;" style="rounded=1;whiteSpace=wrap;html=1;" parent="ROIVXRoGKlTalxw2WbaJ-27" vertex="1">
          <mxGeometry width="120" height="40" as="geometry" />
        </mxCell>
        <mxCell id="4o-ienFljTThCt2ZpEpt-1" value="" style="ellipse;whiteSpace=wrap;html=1;aspect=fixed;fillColor=#00ff00;strokeColor=#82b366;" parent="ROIVXRoGKlTalxw2WbaJ-27" vertex="1">
          <mxGeometry x="110" width="10" height="10" as="geometry" />
        </mxCell>
        <mxCell id="ROIVXRoGKlTalxw2WbaJ-28" value="" style="group" parent="1" vertex="1" connectable="0">
          <mxGeometry x="320" y="600" width="120" height="40" as="geometry" />
        </mxCell>
        <mxCell id="3lPgZFk10soX4WAU6rw9-2" value="" style="group" parent="ROIVXRoGKlTalxw2WbaJ-28" vertex="1" connectable="0">
          <mxGeometry width="120" height="40" as="geometry" />
        </mxCell>
        <mxCell id="ROIVXRoGKlTalxw2WbaJ-5" value="&lt;a href=&quot;https://github.com/CyferShepard/Jellystat&quot;&gt;Jellystat&lt;/a&gt;&lt;br&gt;&lt;sub&gt;&lt;i&gt;Emby Statistics&lt;/i&gt;&lt;/sub&gt;" style="rounded=1;whiteSpace=wrap;html=1;" parent="3lPgZFk10soX4WAU6rw9-2" vertex="1">
          <mxGeometry width="120" height="40" as="geometry" />
        </mxCell>
        <mxCell id="ROIVXRoGKlTalxw2WbaJ-8" value="&lt;font style=&quot;font-size: 10px;&quot;&gt;&lt;a href=&quot;https://github.com/postgres/postgres&quot;&gt;PSQL&lt;/a&gt;&lt;/font&gt;" style="rounded=1;whiteSpace=wrap;html=1;" parent="3lPgZFk10soX4WAU6rw9-2" vertex="1">
          <mxGeometry width="30" height="20" as="geometry" />
        </mxCell>
        <mxCell id="3lPgZFk10soX4WAU6rw9-1" value="" style="ellipse;whiteSpace=wrap;html=1;aspect=fixed;fillColor=#00ff00;strokeColor=#82b366;" parent="3lPgZFk10soX4WAU6rw9-2" vertex="1">
          <mxGeometry x="110" width="10" height="10" as="geometry" />
        </mxCell>
        <mxCell id="ROIVXRoGKlTalxw2WbaJ-29" value="" style="group" parent="1" vertex="1" connectable="0">
          <mxGeometry x="640" y="680" width="120" height="40" as="geometry" />
        </mxCell>
        <mxCell id="L3N2BB-xulvQuJLPhwg5-2" value="&lt;a href=&quot;https://github.com/PhiTux/DailyTxT&quot;&gt;DailyTxT&lt;/a&gt;&lt;br&gt;&lt;sub&gt;&lt;i&gt;Journal&lt;/i&gt;&lt;/sub&gt;" style="rounded=1;whiteSpace=wrap;html=1;dashed=1;dashPattern=8 8;fillColor=#dae8fc;strokeColor=#6c8ebf;" parent="ROIVXRoGKlTalxw2WbaJ-29" vertex="1">
          <mxGeometry width="120" height="40" as="geometry" />
        </mxCell>
        <mxCell id="gErYVcJsU2c04pcpEg-A-22" value="" style="ellipse;whiteSpace=wrap;html=1;aspect=fixed;fillColor=#cdcdcd;strokeColor=#666666;fontColor=#333333;" parent="ROIVXRoGKlTalxw2WbaJ-29" vertex="1">
          <mxGeometry x="110" width="10" height="10" as="geometry" />
        </mxCell>
        <mxCell id="ROIVXRoGKlTalxw2WbaJ-30" value="" style="group" parent="1" vertex="1" connectable="0">
          <mxGeometry x="480" y="640" width="120" height="40" as="geometry" />
        </mxCell>
        <mxCell id="m3TOI7ntmCoXaSSpGHYj-1" value="&lt;a href=&quot;https://github.com/filebrowser/filebrowser&quot;&gt;File Browser&lt;/a&gt;&lt;br&gt;&lt;span style=&quot;font-size: 10px;&quot;&gt;&lt;i&gt;File&amp;nbsp;&lt;/i&gt;&lt;/span&gt;&lt;i style=&quot;font-size: 10px; background-color: initial;&quot;&gt;Viewer&lt;/i&gt;" style="rounded=1;whiteSpace=wrap;html=1;" parent="ROIVXRoGKlTalxw2WbaJ-30" vertex="1">
          <mxGeometry width="120" height="40" as="geometry" />
        </mxCell>
        <mxCell id="m3TOI7ntmCoXaSSpGHYj-2" value="" style="ellipse;whiteSpace=wrap;html=1;aspect=fixed;fillColor=#00ff00;strokeColor=#82b366;" parent="ROIVXRoGKlTalxw2WbaJ-30" vertex="1">
          <mxGeometry x="110" width="10" height="10" as="geometry" />
        </mxCell>
        <mxCell id="ROIVXRoGKlTalxw2WbaJ-31" value="" style="group" parent="1" vertex="1" connectable="0">
          <mxGeometry x="480" y="680" width="120" height="40" as="geometry" />
        </mxCell>
        <mxCell id="oyaQrTRKLkGkAWCvTF3D-14" value="&lt;a href=&quot;https://github.com/hay-kot/homebox&quot;&gt;Homebox&lt;/a&gt;&lt;br&gt;&lt;i&gt;&lt;sub&gt;Inventory Manager&lt;/sub&gt;&lt;/i&gt;" style="rounded=1;whiteSpace=wrap;html=1;" parent="ROIVXRoGKlTalxw2WbaJ-31" vertex="1">
          <mxGeometry width="120" height="40" as="geometry" />
        </mxCell>
        <mxCell id="lqP_p-LIw5tr7ydSI8jG-2" value="" style="ellipse;whiteSpace=wrap;html=1;aspect=fixed;fillColor=#cdcdcd;strokeColor=#666666;fontColor=#333333;" parent="ROIVXRoGKlTalxw2WbaJ-31" vertex="1">
          <mxGeometry x="110" width="10" height="10" as="geometry" />
        </mxCell>
        <mxCell id="ROIVXRoGKlTalxw2WbaJ-33" value="" style="group" parent="1" vertex="1" connectable="0">
          <mxGeometry x="280" y="840" width="120" height="40" as="geometry" />
        </mxCell>
        <mxCell id="nFLrENYFJLQG_o7xyKyQ-11" value="&lt;a href=&quot;https://github.com/morpheus65535/bazarr&quot;&gt;Bazarr&lt;/a&gt;&lt;br&gt;&lt;sub&gt;&lt;i&gt;Subtitle Downloader&lt;/i&gt;&lt;/sub&gt;" style="rounded=1;whiteSpace=wrap;html=1;" parent="ROIVXRoGKlTalxw2WbaJ-33" vertex="1">
          <mxGeometry width="120" height="40" as="geometry" />
        </mxCell>
        <mxCell id="XK0xIJmxjpdtDjltt8f1-1" value="" style="ellipse;whiteSpace=wrap;html=1;aspect=fixed;fillColor=#00ff00;strokeColor=#82b366;" parent="ROIVXRoGKlTalxw2WbaJ-33" vertex="1">
          <mxGeometry x="110" width="10" height="10" as="geometry" />
        </mxCell>
        <mxCell id="ROIVXRoGKlTalxw2WbaJ-34" value="" style="group" parent="1" vertex="1" connectable="0">
          <mxGeometry x="320" y="960" width="90" height="40" as="geometry" />
        </mxCell>
        <mxCell id="nFLrENYFJLQG_o7xyKyQ-7" value="&lt;a href=&quot;https://github.com/Sonarr/Sonarr&quot;&gt;Sonarr&lt;/a&gt;&lt;br&gt;&lt;i&gt;&lt;sub&gt;TV Shows&lt;/sub&gt;&lt;/i&gt;" style="rounded=1;whiteSpace=wrap;html=1;" parent="ROIVXRoGKlTalxw2WbaJ-34" vertex="1">
          <mxGeometry width="90" height="40" as="geometry" />
        </mxCell>
        <mxCell id="E4U7jJgjo-yncmPXJe4U-18" value="" style="ellipse;whiteSpace=wrap;html=1;aspect=fixed;fillColor=#00ff00;strokeColor=#82b366;" parent="ROIVXRoGKlTalxw2WbaJ-34" vertex="1">
          <mxGeometry x="80" width="10" height="10" as="geometry" />
        </mxCell>
        <mxCell id="ROIVXRoGKlTalxw2WbaJ-35" value="" style="group" parent="1" vertex="1" connectable="0">
          <mxGeometry x="410" y="960" width="90" height="40" as="geometry" />
        </mxCell>
        <mxCell id="nFLrENYFJLQG_o7xyKyQ-8" value="&lt;a href=&quot;https://github.com/Radarr/Radarr&quot;&gt;Radarr&lt;/a&gt;&lt;br&gt;&lt;i&gt;&lt;sub&gt;Movies&lt;/sub&gt;&lt;/i&gt;" style="rounded=1;whiteSpace=wrap;html=1;" parent="ROIVXRoGKlTalxw2WbaJ-35" vertex="1">
          <mxGeometry width="90" height="40" as="geometry" />
        </mxCell>
        <mxCell id="E4U7jJgjo-yncmPXJe4U-19" value="" style="ellipse;whiteSpace=wrap;html=1;aspect=fixed;fillColor=#00ff00;strokeColor=#82b366;" parent="ROIVXRoGKlTalxw2WbaJ-35" vertex="1">
          <mxGeometry x="80" width="10" height="10" as="geometry" />
        </mxCell>
        <mxCell id="ROIVXRoGKlTalxw2WbaJ-36" value="" style="group" parent="1" vertex="1" connectable="0">
          <mxGeometry x="500" y="960" width="90" height="40" as="geometry" />
        </mxCell>
        <mxCell id="nFLrENYFJLQG_o7xyKyQ-9" value="&lt;a href=&quot;https://github.com/Readarr/Readarr&quot;&gt;Readarr&lt;/a&gt;&lt;br&gt;&lt;i&gt;&lt;sub&gt;eBooks&lt;/sub&gt;&lt;/i&gt;" style="rounded=1;whiteSpace=wrap;html=1;" parent="ROIVXRoGKlTalxw2WbaJ-36" vertex="1">
          <mxGeometry width="90" height="40" as="geometry" />
        </mxCell>
        <mxCell id="E4U7jJgjo-yncmPXJe4U-22" value="" style="ellipse;whiteSpace=wrap;html=1;aspect=fixed;fillColor=#00ff00;strokeColor=#82b366;" parent="ROIVXRoGKlTalxw2WbaJ-36" vertex="1">
          <mxGeometry x="80" width="10" height="10" as="geometry" />
        </mxCell>
        <mxCell id="ROIVXRoGKlTalxw2WbaJ-37" value="" style="group" parent="1" vertex="1" connectable="0">
          <mxGeometry x="590" y="960" width="90" height="40" as="geometry" />
        </mxCell>
        <mxCell id="nFLrENYFJLQG_o7xyKyQ-10" value="&lt;a href=&quot;https://github.com/Lidarr/Lidarr&quot;&gt;Lidarr&lt;/a&gt;&lt;br&gt;&lt;sub&gt;&lt;i&gt;Music&lt;/i&gt;&lt;/sub&gt;" style="rounded=1;whiteSpace=wrap;html=1;" parent="ROIVXRoGKlTalxw2WbaJ-37" vertex="1">
          <mxGeometry width="90" height="40" as="geometry" />
        </mxCell>
        <mxCell id="E4U7jJgjo-yncmPXJe4U-23" value="" style="ellipse;whiteSpace=wrap;html=1;aspect=fixed;fillColor=#00ff00;strokeColor=#82b366;" parent="ROIVXRoGKlTalxw2WbaJ-37" vertex="1">
          <mxGeometry x="80" width="10" height="10" as="geometry" />
        </mxCell>
        <mxCell id="ROIVXRoGKlTalxw2WbaJ-38" value="" style="group" parent="1" vertex="1" connectable="0">
          <mxGeometry x="560" y="1080" width="120" height="40" as="geometry" />
        </mxCell>
        <mxCell id="beeUFlDvooX-L1BY4JcO-1" value="&lt;a href=&quot;https://github.com/Fallenbagel/jellyseerr&quot;&gt;Jellyseer&lt;/a&gt;&lt;br&gt;&lt;i&gt;&lt;sub&gt;Media Request Bot&lt;/sub&gt;&lt;/i&gt;" style="rounded=1;whiteSpace=wrap;html=1;dashed=1;dashPattern=8 8;fillColor=#fff2cc;strokeColor=#d6b656;fillStyle=solid;" parent="ROIVXRoGKlTalxw2WbaJ-38" vertex="1">
          <mxGeometry width="120" height="40" as="geometry" />
        </mxCell>
        <mxCell id="ROIVXRoGKlTalxw2WbaJ-39" value="" style="group" parent="1" vertex="1" connectable="0">
          <mxGeometry x="760" y="840" width="120" height="40" as="geometry" />
        </mxCell>
        <mxCell id="nFLrENYFJLQG_o7xyKyQ-12" value="&lt;a href=&quot;https://github.com/Prowlarr/Prowlarr&quot;&gt;Prowlarr&lt;/a&gt;&lt;br&gt;&lt;sub&gt;&lt;i&gt;Torrent Site List&lt;/i&gt;&lt;/sub&gt;" style="rounded=1;whiteSpace=wrap;html=1;" parent="ROIVXRoGKlTalxw2WbaJ-39" vertex="1">
          <mxGeometry width="120" height="40" as="geometry" />
        </mxCell>
        <mxCell id="gErYVcJsU2c04pcpEg-A-1" value="" style="ellipse;whiteSpace=wrap;html=1;aspect=fixed;fillColor=#00ff00;strokeColor=#82b366;" parent="ROIVXRoGKlTalxw2WbaJ-39" vertex="1">
          <mxGeometry x="110" width="10" height="10" as="geometry" />
        </mxCell>
        <mxCell id="ROIVXRoGKlTalxw2WbaJ-40" value="" style="group" parent="1" vertex="1" connectable="0">
          <mxGeometry x="930" y="840" width="120" height="40" as="geometry" />
        </mxCell>
        <mxCell id="nFLrENYFJLQG_o7xyKyQ-14" value="&lt;a href=&quot;https://github.com/qbittorrent/qBittorrent&quot;&gt;qBittorrent&lt;/a&gt;&lt;div&gt;&lt;i&gt;&lt;sub&gt;Download Client&lt;/sub&gt;&lt;/i&gt;&lt;/div&gt;" style="rounded=1;whiteSpace=wrap;html=1;" parent="ROIVXRoGKlTalxw2WbaJ-40" vertex="1">
          <mxGeometry width="120" height="40" as="geometry" />
        </mxCell>
        <mxCell id="gErYVcJsU2c04pcpEg-A-12" value="" style="ellipse;whiteSpace=wrap;html=1;aspect=fixed;fillColor=#f8cecc;strokeColor=#b85450;" parent="ROIVXRoGKlTalxw2WbaJ-40" vertex="1">
          <mxGeometry x="110" width="10" height="10" as="geometry" />
        </mxCell>
        <mxCell id="c8P4jSNPrJRnVMDuyacA-2" value="" style="group" parent="1" vertex="1" connectable="0">
          <mxGeometry x="640" y="640" width="120" height="40" as="geometry" />
        </mxCell>
        <mxCell id="ROIVXRoGKlTalxw2WbaJ-12" value="&lt;a href=&quot;https://github.com/open-webui/open-webui&quot;&gt;Open-WebUI&lt;/a&gt;&lt;br&gt;&lt;i&gt;&lt;sub&gt;Large Language Model&lt;/sub&gt;&lt;/i&gt;" style="rounded=1;whiteSpace=wrap;html=1;dashed=1;dashPattern=8 8;fillColor=#dae8fc;strokeColor=#6c8ebf;" parent="c8P4jSNPrJRnVMDuyacA-2" vertex="1">
          <mxGeometry width="120" height="40" as="geometry" />
        </mxCell>
        <mxCell id="c8P4jSNPrJRnVMDuyacA-1" value="" style="ellipse;whiteSpace=wrap;html=1;aspect=fixed;fillColor=#00ff00;strokeColor=#82b366;" parent="c8P4jSNPrJRnVMDuyacA-2" vertex="1">
          <mxGeometry x="110" width="10" height="10" as="geometry" />
        </mxCell>
        <mxCell id="4llZug0oc3wIDcsTs2dC-1" value="" style="group" parent="1" vertex="1" connectable="0">
          <mxGeometry x="480" y="600" width="120" height="40" as="geometry" />
        </mxCell>
        <mxCell id="4llZug0oc3wIDcsTs2dC-2" value="&lt;a href=&quot;https://github.com/SonarSource/sonarqube&quot;&gt;SonarQube&lt;/a&gt;&lt;br&gt;&lt;div&gt;&lt;i&gt;&lt;sub&gt;Code Quality Scanner&lt;/sub&gt;&lt;/i&gt;&lt;br&gt;&lt;/div&gt;" style="rounded=1;whiteSpace=wrap;html=1;" parent="4llZug0oc3wIDcsTs2dC-1" vertex="1">
          <mxGeometry width="120" height="40" as="geometry" />
        </mxCell>
        <mxCell id="4llZug0oc3wIDcsTs2dC-3" value="" style="ellipse;whiteSpace=wrap;html=1;aspect=fixed;fillColor=#00ff00;strokeColor=#82b366;" parent="4llZug0oc3wIDcsTs2dC-1" vertex="1">
          <mxGeometry x="110" width="10" height="10" as="geometry" />
        </mxCell>
        <mxCell id="lcRQkhD3couCPsEeO-z6-5" style="edgeStyle=orthogonalEdgeStyle;rounded=0;orthogonalLoop=1;jettySize=auto;html=1;exitX=0.5;exitY=0;exitDx=0;exitDy=0;entryX=0.5;entryY=0;entryDx=0;entryDy=0;" parent="1" source="ByP5D_G1rsHgrG0Wdw6j-18" target="lcRQkhD3couCPsEeO-z6-1" edge="1">
          <mxGeometry relative="1" as="geometry" />
        </mxCell>
        <mxCell id="s6KsKlsxPxhYHKT-FHXf-1" value="&lt;a href=&quot;https://github.com/pbogre/jetlog&quot;&gt;Jetlog&lt;/a&gt;&lt;br&gt;&lt;span style=&quot;font-size: 10px;&quot;&gt;&lt;i&gt;Personal Flight Tracker&lt;/i&gt;&lt;/span&gt;" style="rounded=1;whiteSpace=wrap;html=1;dashed=1;dashPattern=8 8;fillColor=#fff2cc;strokeColor=#d6b656;" parent="1" vertex="1">
          <mxGeometry x="960" y="680" width="120" height="40" as="geometry" />
        </mxCell>
        <mxCell id="Tl25KXTgNwVIgyIWhWGG-4" value="" style="rounded=0;whiteSpace=wrap;html=1;fillColor=#e1d5e7;strokeColor=#9673a6;opacity=30;container=0;" parent="1" vertex="1">
          <mxGeometry x="880" y="200" width="200" height="240" as="geometry" />
        </mxCell>
        <mxCell id="Tl25KXTgNwVIgyIWhWGG-5" value="&lt;b&gt;&lt;u&gt;Security &amp;amp; Metrics&lt;/u&gt;&lt;/b&gt;" style="text;html=1;strokeColor=none;fillColor=none;align=left;verticalAlign=middle;whiteSpace=wrap;rounded=0;container=0;" parent="1" vertex="1">
          <mxGeometry x="880" y="200" width="111" height="26.79" as="geometry" />
        </mxCell>
        <mxCell id="Tl25KXTgNwVIgyIWhWGG-11" value="&lt;a href=&quot;https://github.com/crowdsecurity/crowdsec&quot;&gt;Crowdsec&lt;/a&gt;&lt;br&gt;&lt;i&gt;&lt;sub&gt;Host Blocker&lt;/sub&gt;&lt;/i&gt;" style="rounded=1;whiteSpace=wrap;html=1;dashed=1;dashPattern=8 8;fillColor=#fff2cc;strokeColor=#d6b656;container=0;" parent="1" vertex="1">
          <mxGeometry x="920" y="320" width="120" height="40" as="geometry" />
        </mxCell>
        <mxCell id="HlaznDHf1Y8uNSB78Uza-1" value="&lt;a href=&quot;https://github.com/grafana/grafana&quot;&gt;Grafana&lt;/a&gt;&lt;br&gt;&lt;i&gt;&lt;sub&gt;Observability&lt;/sub&gt;&lt;/i&gt;" style="rounded=1;whiteSpace=wrap;html=1;dashed=1;dashPattern=8 8;fillColor=#fff2cc;strokeColor=#d6b656;container=0;" parent="1" vertex="1">
          <mxGeometry x="920" y="360" width="120" height="40" as="geometry" />
        </mxCell>
        <mxCell id="oyaQrTRKLkGkAWCvTF3D-21" value="" style="rounded=0;whiteSpace=wrap;html=1;fillColor=#d5e8d4;strokeColor=#82b366;opacity=30;container=0;" parent="1" vertex="1">
          <mxGeometry x="80" y="1241" width="360" height="160" as="geometry" />
        </mxCell>
        <mxCell id="oyaQrTRKLkGkAWCvTF3D-38" value="Synology NAS" style="text;html=1;strokeColor=none;fillColor=none;align=left;verticalAlign=middle;whiteSpace=wrap;rounded=0;fontStyle=5;container=0;" parent="1" vertex="1">
          <mxGeometry x="80" y="1240" width="120" height="22.5" as="geometry" />
        </mxCell>
        <mxCell id="UXwtWhZApco5GzXYoAl0-1" value="" style="ellipse;whiteSpace=wrap;html=1;aspect=fixed;fillColor=#00ff00;strokeColor=#82b366;container=0;" parent="1" vertex="1">
          <mxGeometry x="432.5" y="1240" width="7.5" height="7.5" as="geometry" />
        </mxCell>
        <mxCell id="vYuPC3ZNPn9KQm_DdLxk-11" value="&lt;div&gt;&lt;br&gt;&lt;/div&gt;&lt;div&gt;&lt;br&gt;&lt;/div&gt;HDD" style="strokeWidth=2;html=1;shape=mxgraph.flowchart.database;whiteSpace=wrap;container=0;" parent="1" vertex="1">
          <mxGeometry x="140" y="1280" width="60" height="80" as="geometry" />
        </mxCell>
        <mxCell id="vYuPC3ZNPn9KQm_DdLxk-12" value="&lt;div&gt;&lt;br&gt;&lt;/div&gt;&lt;div&gt;&lt;br&gt;&lt;/div&gt;HDD" style="strokeWidth=2;html=1;shape=mxgraph.flowchart.database;whiteSpace=wrap;container=0;" parent="1" vertex="1">
          <mxGeometry x="200" y="1280" width="60" height="80" as="geometry" />
        </mxCell>
        <mxCell id="vYuPC3ZNPn9KQm_DdLxk-13" value="&lt;div&gt;&lt;br&gt;&lt;/div&gt;&lt;div&gt;&lt;br&gt;&lt;/div&gt;HDD" style="strokeWidth=2;html=1;shape=mxgraph.flowchart.database;whiteSpace=wrap;container=0;" parent="1" vertex="1">
          <mxGeometry x="260" y="1281" width="60" height="80" as="geometry" />
        </mxCell>
        <mxCell id="vYuPC3ZNPn9KQm_DdLxk-14" value="&lt;div&gt;&lt;br&gt;&lt;/div&gt;&lt;div&gt;&lt;br&gt;&lt;/div&gt;HDD" style="strokeWidth=2;html=1;shape=mxgraph.flowchart.database;whiteSpace=wrap;container=0;" parent="1" vertex="1">
          <mxGeometry x="320" y="1281" width="60" height="80" as="geometry" />
        </mxCell>
        <mxCell id="yPYZG5OUBgQut-3pFmvg-10" value="&lt;div&gt;&lt;br&gt;&lt;/div&gt;&lt;div&gt;&lt;br&gt;&lt;/div&gt;HDD" style="strokeWidth=2;html=1;shape=mxgraph.flowchart.database;whiteSpace=wrap;container=0;" parent="1" vertex="1">
          <mxGeometry x="120" y="1290" width="60" height="80" as="geometry" />
        </mxCell>
        <mxCell id="vYuPC3ZNPn9KQm_DdLxk-7" value="&lt;div&gt;&lt;br&gt;&lt;/div&gt;&lt;div&gt;&lt;br&gt;&lt;/div&gt;HDD" style="strokeWidth=2;html=1;shape=mxgraph.flowchart.database;whiteSpace=wrap;container=0;" parent="1" vertex="1">
          <mxGeometry x="180" y="1290" width="60" height="80" as="geometry" />
        </mxCell>
        <mxCell id="vYuPC3ZNPn9KQm_DdLxk-8" value="&lt;div&gt;&lt;br&gt;&lt;/div&gt;&lt;div&gt;&lt;br&gt;&lt;/div&gt;HDD" style="strokeWidth=2;html=1;shape=mxgraph.flowchart.database;whiteSpace=wrap;container=0;" parent="1" vertex="1">
          <mxGeometry x="240" y="1291" width="60" height="80" as="geometry" />
        </mxCell>
        <mxCell id="vYuPC3ZNPn9KQm_DdLxk-9" value="&lt;div&gt;&lt;br&gt;&lt;/div&gt;&lt;div&gt;&lt;br&gt;&lt;/div&gt;HDD" style="strokeWidth=2;html=1;shape=mxgraph.flowchart.database;whiteSpace=wrap;container=0;" parent="1" vertex="1">
          <mxGeometry x="300" y="1291" width="60" height="80" as="geometry" />
        </mxCell>
        <mxCell id="n2uqNcOl2qhzvm0Dekme-4" value="" style="group;rounded=1;fillColor=default;fillStyle=solid;strokeColor=default;gradientColor=default;container=0;" parent="1" vertex="1" connectable="0">
          <mxGeometry x="640" y="600" width="120" height="40" as="geometry" />
        </mxCell>
        <mxCell id="n2uqNcOl2qhzvm0Dekme-12" style="edgeStyle=orthogonalEdgeStyle;rounded=0;orthogonalLoop=1;jettySize=auto;html=1;exitX=0.5;exitY=0;exitDx=0;exitDy=0;entryX=1;entryY=0.934;entryDx=0;entryDy=0;entryPerimeter=0;" parent="1" source="n2uqNcOl2qhzvm0Dekme-22" target="6X1RMtc413aK-zR1KFE_-32" edge="1">
          <mxGeometry relative="1" as="geometry">
            <mxPoint x="1020" y="1320" as="sourcePoint" />
          </mxGeometry>
        </mxCell>
        <mxCell id="n2uqNcOl2qhzvm0Dekme-15" style="edgeStyle=orthogonalEdgeStyle;rounded=0;orthogonalLoop=1;jettySize=auto;html=1;exitX=0.25;exitY=1;exitDx=0;exitDy=0;entryX=0.064;entryY=0;entryDx=0;entryDy=0;entryPerimeter=0;" parent="1" source="ByP5D_G1rsHgrG0Wdw6j-18" target="6X1RMtc413aK-zR1KFE_-30" edge="1">
          <mxGeometry relative="1" as="geometry">
            <mxPoint x="159" y="540" as="targetPoint" />
          </mxGeometry>
        </mxCell>
        <mxCell id="n2uqNcOl2qhzvm0Dekme-18" style="edgeStyle=orthogonalEdgeStyle;rounded=0;orthogonalLoop=1;jettySize=auto;html=1;exitX=0.5;exitY=0;exitDx=0;exitDy=0;entryX=0.5;entryY=0;entryDx=0;entryDy=0;" parent="1" source="ByP5D_G1rsHgrG0Wdw6j-18" target="FYdWkUBb8k9048htAl1_-3" edge="1">
          <mxGeometry relative="1" as="geometry">
            <mxPoint x="420" y="180" as="sourcePoint" />
            <mxPoint x="1020" y="180" as="targetPoint" />
          </mxGeometry>
        </mxCell>
        <mxCell id="ROIVXRoGKlTalxw2WbaJ-17" value="&lt;a href=&quot;https://github.com/BigBoot/AutoKuma/&quot;&gt;AutoKuma&lt;/a&gt;&lt;br&gt;&lt;i&gt;&lt;sub&gt;Monitor Generator (Pi)&lt;/sub&gt;&lt;/i&gt;" style="rounded=1;whiteSpace=wrap;html=1;fillColor=#cdcdcd;strokeColor=#666666;" parent="1" vertex="1">
          <mxGeometry x="720" y="360" width="120" height="40" as="geometry" />
        </mxCell>
        <mxCell id="n2uqNcOl2qhzvm0Dekme-20" style="edgeStyle=orthogonalEdgeStyle;rounded=0;orthogonalLoop=1;jettySize=auto;html=1;exitX=0.25;exitY=0;exitDx=0;exitDy=0;entryX=0.043;entryY=0.998;entryDx=0;entryDy=0;entryPerimeter=0;" parent="1" source="oyaQrTRKLkGkAWCvTF3D-21" target="nFLrENYFJLQG_o7xyKyQ-1" edge="1">
          <mxGeometry relative="1" as="geometry" />
        </mxCell>
        <mxCell id="ROIVXRoGKlTalxw2WbaJ-1" value="&lt;a href=&quot;https://github.com/BigBoot/AutoKuma/&quot;&gt;AutoKuma&lt;/a&gt;&lt;br&gt;&lt;i&gt;&lt;sub&gt;Monitor Generator&lt;/sub&gt;&lt;/i&gt;" style="rounded=1;whiteSpace=wrap;html=1;fillColor=#cdcdcd;strokeColor=#666666;" parent="1" vertex="1">
          <mxGeometry x="720" y="320" width="120" height="40" as="geometry" />
        </mxCell>
        <mxCell id="n2uqNcOl2qhzvm0Dekme-22" value="&lt;a href=&quot;https://nzb360.com/&quot;&gt;nzb360&lt;/a&gt;&lt;div&gt;&lt;i&gt;Admin Access&lt;/i&gt;&lt;/div&gt;" style="rounded=1;whiteSpace=wrap;html=1;" parent="1" vertex="1">
          <mxGeometry x="1040" y="1280" width="120" height="40" as="geometry" />
        </mxCell>
        <mxCell id="Q6Jxrl3DY5_jXdF7SZNn-2" style="edgeStyle=orthogonalEdgeStyle;rounded=0;orthogonalLoop=1;jettySize=auto;html=1;exitX=0.5;exitY=1;exitDx=0;exitDy=0;entryX=0;entryY=0.5;entryDx=0;entryDy=0;" parent="1" source="Q6Jxrl3DY5_jXdF7SZNn-1" target="oyaQrTRKLkGkAWCvTF3D-13" edge="1">
          <mxGeometry relative="1" as="geometry">
            <Array as="points">
              <mxPoint x="980" y="1420" />
              <mxPoint x="60" y="1420" />
              <mxPoint x="60" y="700" />
            </Array>
          </mxGeometry>
        </mxCell>
        <mxCell id="Q6Jxrl3DY5_jXdF7SZNn-1" value="&lt;a href=&quot;https://github.com/phantomate/Untare&quot;&gt;Untare&lt;/a&gt;&lt;br&gt;&lt;div&gt;&lt;i&gt;Recipe App&lt;/i&gt;&lt;/div&gt;" style="rounded=1;whiteSpace=wrap;html=1;" parent="1" vertex="1">
          <mxGeometry x="920" y="1281" width="120" height="40" as="geometry" />
        </mxCell>
        <mxCell id="Q6Jxrl3DY5_jXdF7SZNn-5" style="edgeStyle=orthogonalEdgeStyle;rounded=0;orthogonalLoop=1;jettySize=auto;html=1;exitX=0.059;exitY=0.999;exitDx=0;exitDy=0;entryX=0.629;entryY=0;entryDx=0;entryDy=0;entryPerimeter=0;exitPerimeter=0;" parent="1" source="oyaQrTRKLkGkAWCvTF3D-5" target="oyaQrTRKLkGkAWCvTF3D-21" edge="1">
          <mxGeometry relative="1" as="geometry">
            <Array as="points">
              <mxPoint x="306" y="1040" />
            </Array>
          </mxGeometry>
        </mxCell>
        <mxCell id="ZHVau_gpumx4E9w_0-pG-4" style="edgeStyle=orthogonalEdgeStyle;rounded=0;orthogonalLoop=1;jettySize=auto;html=1;exitX=0.5;exitY=1;exitDx=0;exitDy=0;entryX=0;entryY=0.5;entryDx=0;entryDy=0;" parent="1" source="ZHVau_gpumx4E9w_0-pG-1" target="ByP5D_G1rsHgrG0Wdw6j-18" edge="1">
          <mxGeometry relative="1" as="geometry" />
        </mxCell>
        <mxCell id="ZHVau_gpumx4E9w_0-pG-6" value="port 443" style="edgeLabel;html=1;align=center;verticalAlign=middle;resizable=0;points=[];" parent="ZHVau_gpumx4E9w_0-pG-4" vertex="1" connectable="0">
          <mxGeometry x="0.1739" y="-1" relative="1" as="geometry">
            <mxPoint x="1" y="-17" as="offset" />
          </mxGeometry>
        </mxCell>
        <mxCell id="ZHVau_gpumx4E9w_0-pG-1" value="" style="image;aspect=fixed;perimeter=ellipsePerimeter;html=1;align=center;shadow=0;dashed=0;spacingTop=3;image=img/lib/active_directory/internet_cloud.svg;" parent="1" vertex="1">
          <mxGeometry x="120.63" y="40" width="79.37" height="50" as="geometry" />
        </mxCell>
        <mxCell id="ZHVau_gpumx4E9w_0-pG-5" value="Internet" style="text;html=1;align=center;verticalAlign=middle;whiteSpace=wrap;rounded=0;" parent="1" vertex="1">
          <mxGeometry x="130.31" y="50" width="60" height="30" as="geometry" />
        </mxCell>
        <mxCell id="L6m80jQgylzgtWpYlu2N-1" value="" style="group" parent="1" vertex="1" connectable="0">
          <mxGeometry x="440" y="400" width="120" height="40" as="geometry" />
        </mxCell>
        <mxCell id="L6m80jQgylzgtWpYlu2N-2" value="&lt;a href=&quot;https://github.com/arabcoders/watchstate&quot;&gt;WatchState&lt;/a&gt;&lt;br&gt;&lt;i&gt;&lt;sub&gt;Emby watched data&lt;/sub&gt;&lt;/i&gt;" style="rounded=1;whiteSpace=wrap;html=1;fillColor=#cdcdcd;strokeColor=#666666;" parent="L6m80jQgylzgtWpYlu2N-1" vertex="1">
          <mxGeometry width="120" height="40" as="geometry" />
        </mxCell>
        <mxCell id="L6m80jQgylzgtWpYlu2N-4" style="edgeStyle=orthogonalEdgeStyle;rounded=0;orthogonalLoop=1;jettySize=auto;html=1;exitX=0.5;exitY=1;exitDx=0;exitDy=0;entryX=0.75;entryY=0;entryDx=0;entryDy=0;" parent="1" source="L6m80jQgylzgtWpYlu2N-2" target="0rjydeuM3OXjqDoLz8A_-4" edge="1">
          <mxGeometry relative="1" as="geometry" />
        </mxCell>
        <mxCell id="i6Ztm92oaQVUvdZmO5BK-4" value="" style="group" vertex="1" connectable="0" parent="1">
          <mxGeometry x="280" y="400" width="120" height="40" as="geometry" />
        </mxCell>
        <mxCell id="i6Ztm92oaQVUvdZmO5BK-5" value="" style="group" vertex="1" connectable="0" parent="i6Ztm92oaQVUvdZmO5BK-4">
          <mxGeometry width="120" height="40" as="geometry" />
        </mxCell>
        <mxCell id="i6Ztm92oaQVUvdZmO5BK-6" value="&lt;a href=&quot;https://github.com/lldap/lldap&quot;&gt;LLDAP&lt;/a&gt;&lt;br&gt;&lt;i&gt;&lt;sub&gt;LDAP server&lt;/sub&gt;&lt;/i&gt;" style="rounded=1;whiteSpace=wrap;html=1;" vertex="1" parent="i6Ztm92oaQVUvdZmO5BK-5">
          <mxGeometry width="120" height="40" as="geometry" />
        </mxCell>
        <mxCell id="i6Ztm92oaQVUvdZmO5BK-23" value="" style="ellipse;whiteSpace=wrap;html=1;aspect=fixed;fillColor=#00ff00;strokeColor=#82b366;" vertex="1" parent="i6Ztm92oaQVUvdZmO5BK-5">
          <mxGeometry x="110" width="10" height="10" as="geometry" />
        </mxCell>
        <mxCell id="i6Ztm92oaQVUvdZmO5BK-10" style="edgeStyle=orthogonalEdgeStyle;rounded=0;orthogonalLoop=1;jettySize=auto;html=1;exitX=0.5;exitY=1;exitDx=0;exitDy=0;entryX=0.5;entryY=0;entryDx=0;entryDy=0;" edge="1" parent="1" source="E4U7jJgjo-yncmPXJe4U-10" target="i6Ztm92oaQVUvdZmO5BK-6">
          <mxGeometry relative="1" as="geometry" />
        </mxCell>
        <mxCell id="i6Ztm92oaQVUvdZmO5BK-11" style="edgeStyle=orthogonalEdgeStyle;rounded=0;orthogonalLoop=1;jettySize=auto;html=1;exitX=0.5;exitY=1;exitDx=0;exitDy=0;" edge="1" parent="1" source="Tl25KXTgNwVIgyIWhWGG-4">
          <mxGeometry relative="1" as="geometry">
            <mxPoint x="980" y="540" as="targetPoint" />
          </mxGeometry>
        </mxCell>
        <mxCell id="i6Ztm92oaQVUvdZmO5BK-14" value="" style="group" vertex="1" connectable="0" parent="1">
          <mxGeometry x="720" y="200" width="120" height="40" as="geometry" />
        </mxCell>
        <mxCell id="lcRQkhD3couCPsEeO-z6-1" value="&lt;a href=&quot;https://github.com/alexjustesen/speedtest-tracker&quot;&gt;Speedtest Tracker&lt;/a&gt;&lt;br&gt;&lt;div&gt;&lt;i&gt;&lt;sub&gt;Network Speed Test&lt;/sub&gt;&lt;/i&gt;&lt;br&gt;&lt;/div&gt;" style="rounded=1;whiteSpace=wrap;html=1;" parent="i6Ztm92oaQVUvdZmO5BK-14" vertex="1">
          <mxGeometry width="120" height="40" as="geometry" />
        </mxCell>
        <mxCell id="lcRQkhD3couCPsEeO-z6-2" value="" style="ellipse;whiteSpace=wrap;html=1;aspect=fixed;fillColor=#cdcdcd;strokeColor=#666666;fontColor=#333333;" parent="i6Ztm92oaQVUvdZmO5BK-14" vertex="1">
          <mxGeometry x="110" width="10" height="10" as="geometry" />
        </mxCell>
        <mxCell id="i6Ztm92oaQVUvdZmO5BK-17" value="" style="group" vertex="1" connectable="0" parent="1">
          <mxGeometry x="920" y="240" width="120" height="40" as="geometry" />
        </mxCell>
        <mxCell id="i6Ztm92oaQVUvdZmO5BK-24" value="" style="group" vertex="1" connectable="0" parent="i6Ztm92oaQVUvdZmO5BK-17">
          <mxGeometry width="120" height="40" as="geometry" />
        </mxCell>
        <mxCell id="beeUFlDvooX-L1BY4JcO-7" value="&lt;a href=&quot;https://github.com/amir20/dozzle&quot;&gt;Dozzle&lt;/a&gt;&lt;br&gt;&lt;i&gt;&lt;sub&gt;Docker&amp;nbsp;Manager&lt;/sub&gt;&lt;/i&gt;" style="rounded=1;whiteSpace=wrap;html=1;container=0;" parent="i6Ztm92oaQVUvdZmO5BK-24" vertex="1">
          <mxGeometry width="120" height="40" as="geometry" />
        </mxCell>
        <mxCell id="i6Ztm92oaQVUvdZmO5BK-15" value="" style="ellipse;whiteSpace=wrap;html=1;aspect=fixed;fillColor=#00ff00;strokeColor=#82b366;" vertex="1" parent="i6Ztm92oaQVUvdZmO5BK-24">
          <mxGeometry x="110" width="10" height="10" as="geometry" />
        </mxCell>
        <mxCell id="i6Ztm92oaQVUvdZmO5BK-18" value="" style="group" vertex="1" connectable="0" parent="1">
          <mxGeometry x="640" y="600" width="120" height="40" as="geometry" />
        </mxCell>
        <mxCell id="n2uqNcOl2qhzvm0Dekme-5" value="&lt;a href=&quot;https://github.com/linkwarden/linkwarden&quot;&gt;Linkwarden&lt;/a&gt;&lt;br&gt;&lt;sub&gt;&lt;i&gt;Bookmark Manager&lt;/i&gt;&lt;/sub&gt;" style="rounded=1;whiteSpace=wrap;html=1;dashed=1;dashPattern=8 8;strokeColor=none;" parent="i6Ztm92oaQVUvdZmO5BK-18" vertex="1">
          <mxGeometry width="120" height="40" as="geometry" />
        </mxCell>
        <mxCell id="n2uqNcOl2qhzvm0Dekme-7" value="" style="ellipse;whiteSpace=wrap;html=1;aspect=fixed;fillColor=#00ff00;strokeColor=#82b366;" parent="i6Ztm92oaQVUvdZmO5BK-18" vertex="1">
          <mxGeometry x="110" width="10" height="10" as="geometry" />
        </mxCell>
        <mxCell id="i6Ztm92oaQVUvdZmO5BK-21" style="edgeStyle=orthogonalEdgeStyle;rounded=0;orthogonalLoop=1;jettySize=auto;html=1;exitX=0.5;exitY=0;exitDx=0;exitDy=0;entryX=0.5;entryY=0;entryDx=0;entryDy=0;" edge="1" parent="1" source="ByP5D_G1rsHgrG0Wdw6j-18" target="MZvt10MQMLPbu3KIxgem-8">
          <mxGeometry relative="1" as="geometry" />
        </mxCell>
        <mxCell id="ROIVXRoGKlTalxw2WbaJ-20" value="" style="group" parent="1" vertex="1" connectable="0">
          <mxGeometry x="920" y="280" width="120" height="40" as="geometry" />
        </mxCell>
        <mxCell id="Tl25KXTgNwVIgyIWhWGG-1" value="&lt;a href=&quot;https://github.com/louislam/uptime-kuma&quot;&gt;Uptime Kuma&lt;/a&gt;&lt;br&gt;&lt;i&gt;&lt;sub&gt;Monitoring and Alerting&lt;/sub&gt;&lt;/i&gt;" style="rounded=1;whiteSpace=wrap;html=1;" parent="ROIVXRoGKlTalxw2WbaJ-20" vertex="1">
          <mxGeometry width="120" height="40" as="geometry" />
        </mxCell>
        <mxCell id="gErYVcJsU2c04pcpEg-A-18" value="" style="ellipse;whiteSpace=wrap;html=1;aspect=fixed;fillColor=#00ff00;strokeColor=#82b366;" parent="ROIVXRoGKlTalxw2WbaJ-20" vertex="1">
          <mxGeometry x="110" width="10" height="10" as="geometry" />
        </mxCell>
        <mxCell id="i6Ztm92oaQVUvdZmO5BK-22" style="edgeStyle=orthogonalEdgeStyle;rounded=0;orthogonalLoop=1;jettySize=auto;html=1;exitX=0.25;exitY=0;exitDx=0;exitDy=0;entryX=0.5;entryY=1;entryDx=0;entryDy=0;" edge="1" parent="1" source="0rjydeuM3OXjqDoLz8A_-4" target="i6Ztm92oaQVUvdZmO5BK-6">
          <mxGeometry relative="1" as="geometry">
            <Array as="points">
              <mxPoint x="190" y="500" />
              <mxPoint x="340" y="500" />
            </Array>
          </mxGeometry>
        </mxCell>
      </root>
    </mxGraphModel>
  </diagram>
</mxfile>
